<svg width="256" height="256" viewBox="0 0 256 256" fill="none" xmlns="http://www.w3.org/2000/svg">
<g clip-path="url(#clip0_14_288)">
<path d="M196 0H60C26.8629 0 0 26.8629 0 60V196C0 229.137 26.8629 256 60 256H196C229.137 256 256 229.137 256 196V60C256 26.8629 229.137 0 196 0Z" fill="url(#paint0_linear_14_288)"/>
<path d="M128.522 149.823C83.6655 164.35 59.2619 165.561 40.0832 215.196C39.7009 216.089 39.3823 217.044 39 218C39 216.789 39 215.579 39.0637 214.368C39.5097 187.034 46.5186 129.497 131.389 109.681C138.844 107.897 145.662 105.922 151.842 103.756C207.786 84.1947 133.874 148.103 128.522 149.823Z" fill="url(#paint1_linear_14_288)"/>
<path d="M190.455 121.087C190.327 121.214 190.2 121.405 190.073 121.533C180.388 131.409 167.517 140.584 150.504 147.912C148.784 148.676 147.127 149.313 145.471 150.014C139.481 152.435 133.874 154.474 128.522 156.195C83.6655 170.722 59.2619 165.561 40.0832 215.196C39.7009 216.089 39.3823 217.044 39 218C39.1274 216.981 39.2549 215.897 39.446 214.687C39.7009 212.966 40.0195 211.055 40.4655 209.016C40.4655 208.952 40.4655 208.825 40.5292 208.697C44.1611 190.156 54.1646 161.292 83.6018 147.912C101.442 139.819 153.627 126.503 190.455 121.087Z" fill="url(#paint2_linear_14_288)"/>
<path d="M210.271 90.6938C195.234 102.163 158.214 122.297 89.9734 135.168C94.835 132.135 100.136 128.688 109.35 124.846C121.615 119.736 136.283 113.224 151.842 103.756C207.786 84.1947 214.221 49.469 214.221 38C217.534 47.8124 219.127 68.6478 210.271 90.6938Z" fill="url(#paint3_linear_14_288)"/>
<path d="M190.073 121.533C179.814 127.777 164.586 134.786 138.462 139.756C135.212 140.393 131.772 140.966 128.204 141.54C102.589 145.49 79.3965 153.073 62.4478 171.104C60.0265 173.653 57.7965 176.457 55.6301 179.451C48.4301 189.455 42.7593 202.071 39 218C39 216.789 39 215.579 39.0637 214.368C39.9558 187.798 51.2336 157.278 85.7044 136.251C95.708 130.135 107.623 124.846 121.832 120.704C127.821 118.92 134.129 117.391 140.947 116.053C172.359 109.873 190.455 98.2761 200.777 85.7239C217.216 65.908 214.221 43.8619 214.221 38C219.064 52.4637 220.211 90.6938 190.073 121.533Z" fill="url(#paint4_linear_14_288)"/>
</g>
<defs>
<linearGradient id="paint0_linear_14_288" x1="0" y1="0" x2="256" y2="256" gradientUnits="userSpaceOnUse">
<stop stop-color="#53769D"/>
<stop offset="1" stop-color="#141E30"/>
</linearGradient>
<linearGradient id="paint1_linear_14_288" x1="27.9642" y1="204.849" x2="163.433" y2="91.1781" gradientUnits="userSpaceOnUse">
<stop offset="0.18" stop-color="#CCF5AE"/>
<stop offset="0.387" stop-color="#5CEA79"/>
<stop offset="0.668" stop-color="#28ABDC"/>
<stop offset="0.841" stop-color="#0061CB"/>
</linearGradient>
<linearGradient id="paint2_linear_14_288" x1="89.3235" y1="173.277" x2="173.283" y2="102.826" gradientUnits="userSpaceOnUse">
<stop stop-color="#FFCC8D"/>
<stop offset="0.493" stop-color="#FF4DAA"/>
<stop offset="1" stop-color="#8D0106"/>
</linearGradient>
<linearGradient id="paint3_linear_14_288" x1="134.378" y1="84.4113" x2="201.389" y2="92.6372" gradientUnits="userSpaceOnUse">
<stop offset="0.106" stop-color="#359BE9"/>
<stop offset="0.484" stop-color="#725ECF"/>
<stop offset="0.603" stop-color="#6D59CB"/>
<stop offset="0.736" stop-color="#604CBE"/>
<stop offset="0.876" stop-color="#4A35A9"/>
<stop offset="1" stop-color="#301B91"/>
</linearGradient>
<linearGradient id="paint4_linear_14_288" x1="39" y1="128" x2="216.84" y2="128" gradientUnits="userSpaceOnUse">
<stop stop-color="#FFF9E5"/>
<stop offset="0.302" stop-color="#FBDEBA"/>
<stop offset="0.698" stop-color="#D648DB"/>
<stop offset="1" stop-color="#7E4EE3"/>
</linearGradient>
<clipPath id="clip0_14_288">
<rect width="256" height="256" fill="white"/>
</clipPath>
</defs>
</svg>
