<svg width="256" height="256" viewBox="0 0 256 256" fill="none" xmlns="http://www.w3.org/2000/svg">
<g clip-path="url(#clip0_101_7)">
<path d="M196 0H60C26.8629 0 0 26.8629 0 60V196C0 229.137 26.8629 256 60 256H196C229.137 256 256 229.137 256 196V60C256 26.8629 229.137 0 196 0Z" fill="white"/>
<path d="M63.6721 157.508H38V217.41H97.9016V191.738H63.6721V157.508Z" fill="#0086FF"/>
<path d="M192.328 157.803V191.738H158.098V217.41H218V157.508L192.328 157.803Z" fill="#0086FF"/>
<path d="M38 97.9016H63.9672L63.6721 97.6066V63.6721H97.9016V38H38V97.9016Z" fill="#0086FF"/>
<path d="M158.098 38V63.6721H192.328V97.9016H218V38C217.705 38 158.098 38 158.098 38Z" fill="#0086FF"/>
<path d="M154.558 97.9016L120.328 63.6721H157.803V38H97.9019V63.6721L132.131 97.9016H154.558Z" fill="#93EAFF"/>
<path d="M123.869 157.508H101.443L129.771 185.836L135.377 191.738H97.9019V217.41H158.099V191.443L140.984 174.623L123.869 157.508Z" fill="#93EAFF"/>
<path d="M192.328 97.9016V135.082L186.426 129.18L158.098 100.852V123.574L174.918 140.393L192.033 157.508H218V97.9016H192.328Z" fill="#93EAFF"/>
<path d="M97.9016 131.836L63.9672 97.9016H38V157.508H63.6721V120.328L97.9016 154.557V131.836V131.836Z" fill="#93EAFF"/>
</g>
<defs>
<clipPath id="clip0_101_7">
<rect width="256" height="256" fill="white"/>
</clipPath>
</defs>
</svg>
