<svg width="256" height="256" viewBox="0 0 256 256" fill="none" xmlns="http://www.w3.org/2000/svg">
<g clip-path="url(#clip0_305_7)">
<path d="M256 0H0V256H256V0Z" fill="url(#paint0_linear_305_7)"/>
<path d="M190.549 185.163H159.618C144.819 200.831 124.496 210.112 102.964 211.036C103.298 211.075 103.626 211.141 103.954 211.141H190.549C195.33 211.141 199.21 207.183 199.21 202.302V193.997C199.21 189.122 195.335 185.169 190.549 185.169V185.163ZM216.527 138.439H181.715C180.585 147.465 177.97 156.243 173.977 164.417H216.527C221.308 164.417 225.183 160.464 225.183 155.589V147.272C225.183 142.391 221.313 138.439 216.527 138.439ZM216.527 91.7193H173.988C177.98 99.8929 180.591 108.671 181.715 117.697H216.527C221.308 117.697 225.183 113.739 225.183 108.869V100.553C225.183 95.6774 221.313 91.7193 216.527 91.7193ZM190.549 45H103.959C103.665 45 103.392 45.0556 103.103 45.0889C124.595 46.0452 144.872 55.3282 159.64 70.9725H190.549C195.33 70.9725 199.21 67.0143 199.21 62.1445V53.828C199.21 48.9526 195.335 45 190.549 45ZM99.2673 58.7868C61.0091 58.7868 30 89.8014 30 128.054C30 166.301 61.0202 197.321 99.2673 197.321C137.52 197.321 168.535 166.301 168.535 128.054C168.535 89.8014 137.52 58.7868 99.2673 58.7868ZM125.129 121.983V127.876H108.434V141.552H123.322V147.444H108.423V164.144H90.0057V147.444H75.1961V141.552H90.0113V127.876H73.4005V121.983H87.2317L71.3436 91.4525H90.5005L99.2562 109.787L108.012 91.4525H127.169L111.208 121.983H125.123H125.129Z" fill="white"/>
</g>
<defs>
<linearGradient id="paint0_linear_305_7" x1="128" y1="0" x2="128" y2="256" gradientUnits="userSpaceOnUse">
<stop stop-color="#56CCF2"/>
<stop offset="1" stop-color="#2F80ED"/>
</linearGradient>
<clipPath id="clip0_305_7">
<rect width="256" height="256" rx="56" fill="white"/>
</clipPath>
</defs>
</svg>
