<svg width="256" height="256" viewBox="0 0 256 256" fill="none" xmlns="http://www.w3.org/2000/svg">
<g clip-path="url(#clip0_23_132)">
<path d="M196 0H60C26.8629 0 0 26.8629 0 60V196C0 229.137 26.8629 256 60 256H196C229.137 256 256 229.137 256 196V60C256 26.8629 229.137 0 196 0Z" fill="white"/>
<path d="M129.786 61.9286C91.2143 63.3571 64.9048 93.4762 56.5714 108.357L47.4673 37.0418C46.7615 31.513 52.3777 27.342 57.4665 29.6158L129.786 61.9286Z" fill="url(#paint0_linear_23_132)"/>
<path fill-rule="evenodd" clip-rule="evenodd" d="M55.3856 38.5189C56.4797 36.8778 58.6971 36.4343 60.3383 37.5284L108.553 69.6713C110.194 70.7654 110.637 72.9828 109.543 74.6239C108.449 76.2651 106.232 76.7086 104.59 75.6145L56.3761 43.4716C54.735 42.3775 54.2915 40.1601 55.3856 38.5189Z" fill="#69C0FF"/>
<circle cx="49.4285" cy="135.143" r="14.2857" fill="url(#paint1_radial_23_132)"/>
<ellipse rx="14.2857" ry="14.2857" transform="matrix(-1 0 0 1 213.713 135.143)" fill="url(#paint2_radial_23_132)"/>
<ellipse cx="131.572" cy="142.286" rx="85.7143" ry="85.7143" fill="url(#paint3_radial_23_132)"/>
<ellipse cx="131.572" cy="142.286" rx="85.7143" ry="85.7143" fill="url(#paint4_radial_23_132)"/>
<g filter="url(#filter0_f_23_132)">
<path d="M126.214 213.715C170.594 213.715 206.571 177.737 206.571 133.357C206.571 124.988 205.292 116.917 202.918 109.33C207.555 119.352 210.142 130.517 210.142 142.286C210.142 185.679 174.964 220.857 131.571 220.857C105.975 220.857 83.2384 208.618 68.8928 189.674C83.4724 204.512 103.769 213.715 126.214 213.715Z" fill="#C1092A" fill-opacity="0.8"/>
</g>
<path fill-rule="evenodd" clip-rule="evenodd" d="M214.632 126.141C221.938 131.203 224.918 140.991 220.535 153.045C217.243 162.097 211.897 167.649 205.761 170.801C199.797 173.865 193.54 174.429 188.714 174.429C188.714 174.429 188.714 174.429 188.714 174.429H140.5C137.541 174.429 135.143 172.03 135.143 169.072C135.143 166.113 137.541 163.715 140.5 163.715H188.714C192.817 163.715 197.096 163.207 200.864 161.271C204.46 159.424 208.043 156.047 210.465 149.384C213.619 140.711 210.879 136.575 208.53 134.947C205.581 132.904 201.708 133.297 199.645 135.36C197.782 137.223 197.516 139.77 198.356 141.809C199.194 143.847 200.594 144.447 201.949 144.176C204.851 143.596 207.673 145.477 208.253 148.378C208.833 151.28 206.952 154.102 204.051 154.682C196.477 156.197 190.734 151.44 188.448 145.888C186.163 140.339 186.79 133.063 192.069 127.784C198.209 121.643 207.926 121.494 214.632 126.141Z" fill="#D424E3"/>
<path fill-rule="evenodd" clip-rule="evenodd" d="M197.12 126.737C197.817 127.435 197.817 128.565 197.12 129.263C194.118 132.265 193.732 136.387 195.053 139.597C196.374 142.806 199.222 144.792 202.65 144.106C203.617 143.913 204.558 144.54 204.751 145.507C204.945 146.474 204.317 147.415 203.35 147.608C197.85 148.709 193.554 145.337 191.751 140.957C189.947 136.577 190.454 130.878 194.594 126.737C195.292 126.04 196.422 126.04 197.12 126.737Z" fill="#F059FD"/>
<path fill-rule="evenodd" clip-rule="evenodd" d="M204.097 161.477C204.593 162.33 204.304 163.423 203.451 163.919C198.224 166.958 192.536 167.248 188.732 167.286C188.726 167.286 188.72 167.286 188.714 167.286H140.5C139.514 167.286 138.714 166.486 138.714 165.5C138.714 164.514 139.514 163.714 140.5 163.714H188.705C192.415 163.677 197.288 163.371 201.656 160.831C202.509 160.336 203.602 160.625 204.097 161.477Z" fill="#F059FD"/>
<g filter="url(#filter1_ddii_23_132)">
<path fill-rule="evenodd" clip-rule="evenodd" d="M138.958 162.02C141.783 159.325 143.571 155.937 144.29 153.823C145.243 151.022 148.286 149.524 151.087 150.477C153.888 151.43 155.387 154.473 154.434 157.274C153.244 160.773 150.605 165.716 146.354 169.772C142.009 173.918 135.763 177.309 127.7 176.857C124.746 176.691 122.486 174.161 122.652 171.207C122.818 168.253 125.347 165.993 128.301 166.159C132.746 166.409 136.226 164.627 138.958 162.02Z" fill="#894819"/>
</g>
<g filter="url(#filter2_ddii_23_132)">
<path fill-rule="evenodd" clip-rule="evenodd" d="M96.3659 90.7022C91.7983 91.4384 87.5767 94.0531 85.1872 96.2387C83.0041 98.2356 79.6155 98.0846 77.6186 95.9015C75.6217 93.7183 75.7727 90.3297 77.9558 88.3328C81.4592 85.1283 87.5234 81.2748 94.6611 80.1244C102.151 78.9172 110.597 80.7656 117.707 88.7142C119.68 90.9194 119.491 94.3061 117.286 96.2786C115.081 98.2511 111.694 98.0625 109.722 95.8573C105.26 90.8695 100.581 90.0228 96.3659 90.7022Z" fill="#894819"/>
</g>
<g filter="url(#filter3_ddii_23_132)">
<path fill-rule="evenodd" clip-rule="evenodd" d="M164.223 90.7022C159.655 91.4384 155.434 94.0531 153.044 96.2387C150.861 98.2356 147.473 98.0846 145.476 95.9015C143.479 93.7183 143.63 90.3297 145.813 88.3328C149.316 85.1283 155.381 81.2748 162.518 80.1244C170.008 78.9172 178.455 80.7656 185.564 88.7142C187.537 90.9194 187.348 94.3061 185.143 96.2786C182.938 98.2511 179.551 98.0625 177.579 95.8573C173.117 90.8695 168.438 90.0228 164.223 90.7022Z" fill="#894819"/>
</g>
<path d="M135.143 35.1429C135.143 39.0877 131.945 42.2857 128 42.2857C124.055 42.2857 120.857 39.0877 120.857 35.1429C120.857 31.198 124.055 28 128 28C131.945 28 135.143 31.198 135.143 35.1429Z" fill="#27BBFA"/>
<path d="M195.857 56.5714C195.857 60.5163 192.659 63.7143 188.714 63.7143C184.769 63.7143 181.572 60.5163 181.572 56.5714C181.572 52.6265 184.769 49.4286 188.714 49.4286C192.659 49.4286 195.857 52.6265 195.857 56.5714Z" fill="#9027FA"/>
<path d="M113.714 124.429C113.714 128.373 110.516 131.571 106.571 131.571C102.626 131.571 99.4285 128.373 99.4285 124.429C99.4285 120.484 102.626 117.286 106.571 117.286C110.516 117.286 113.714 120.484 113.714 124.429Z" fill="#27BBFA"/>
<path d="M42.2857 95.8572C42.2857 99.802 39.0877 103 35.1429 103C31.198 103 28 99.802 28 95.8572C28 91.9123 31.198 88.7143 35.1429 88.7143C39.0877 88.7143 42.2857 91.9123 42.2857 95.8572Z" fill="#FA27F1"/>
<path d="M81.5714 170.857C81.5714 174.802 78.3734 178 74.4285 178C70.4836 178 67.2856 174.802 67.2856 170.857C67.2856 166.912 70.4836 163.714 74.4285 163.714C78.3734 163.714 81.5714 166.912 81.5714 170.857Z" fill="#9027FA"/>
<path d="M181.572 117.286C181.572 121.231 178.374 124.429 174.429 124.429C170.484 124.429 167.286 121.231 167.286 117.286C167.286 113.341 170.484 110.143 174.429 110.143C178.374 110.143 181.572 113.341 181.572 117.286Z" fill="#FA27F1"/>
<path d="M213.714 99.4286C213.714 103.373 210.516 106.571 206.571 106.571C202.626 106.571 199.428 103.373 199.428 99.4286C199.428 95.4837 202.626 92.2857 206.571 92.2857C210.516 92.2857 213.714 95.4837 213.714 99.4286Z" fill="#27BBFA"/>
</g>
<defs>
<filter id="filter0_f_23_132" x="-27.1072" y="13.3302" width="333.249" height="303.527" filterUnits="userSpaceOnUse" color-interpolation-filters="sRGB">
<feFlood flood-opacity="0" result="BackgroundImageFix"/>
<feBlend mode="normal" in="SourceGraphic" in2="BackgroundImageFix" result="shape"/>
<feGaussianBlur stdDeviation="48" result="effect1_foregroundBlur_23_132"/>
</filter>
<filter id="filter1_ddii_23_132" x="90.6433" y="134.19" width="96.0774" height="90.7072" filterUnits="userSpaceOnUse" color-interpolation-filters="sRGB">
<feFlood flood-opacity="0" result="BackgroundImageFix"/>
<feColorMatrix in="SourceAlpha" type="matrix" values="0 0 0 0 0 0 0 0 0 0 0 0 0 0 0 0 0 0 127 0" result="hardAlpha"/>
<feOffset dy="16"/>
<feGaussianBlur stdDeviation="16"/>
<feColorMatrix type="matrix" values="0 0 0 0 0.282353 0 0 0 0 0.054902 0 0 0 0 0.301961 0 0 0 0.2 0"/>
<feBlend mode="normal" in2="BackgroundImageFix" result="effect1_dropShadow_23_132"/>
<feColorMatrix in="SourceAlpha" type="matrix" values="0 0 0 0 0 0 0 0 0 0 0 0 0 0 0 0 0 0 127 0" result="hardAlpha"/>
<feOffset dy="4"/>
<feGaussianBlur stdDeviation="4"/>
<feComposite in2="hardAlpha" operator="out"/>
<feColorMatrix type="matrix" values="0 0 0 0 0.282353 0 0 0 0 0.054902 0 0 0 0 0.301961 0 0 0 0.2 0"/>
<feBlend mode="normal" in2="effect1_dropShadow_23_132" result="effect2_dropShadow_23_132"/>
<feBlend mode="normal" in="SourceGraphic" in2="effect2_dropShadow_23_132" result="shape"/>
<feColorMatrix in="SourceAlpha" type="matrix" values="0 0 0 0 0 0 0 0 0 0 0 0 0 0 0 0 0 0 127 0" result="hardAlpha"/>
<feOffset dx="6" dy="6"/>
<feGaussianBlur stdDeviation="16"/>
<feComposite in2="hardAlpha" operator="arithmetic" k2="-1" k3="1"/>
<feColorMatrix type="matrix" values="0 0 0 0 0.76276 0 0 0 0 0.388636 0 0 0 0 0.122215 0 0 0 1 0"/>
<feBlend mode="normal" in2="shape" result="effect3_innerShadow_23_132"/>
<feColorMatrix in="SourceAlpha" type="matrix" values="0 0 0 0 0 0 0 0 0 0 0 0 0 0 0 0 0 0 127 0" result="hardAlpha"/>
<feOffset dx="-6" dy="-6"/>
<feGaussianBlur stdDeviation="16"/>
<feComposite in2="hardAlpha" operator="arithmetic" k2="-1" k3="1"/>
<feColorMatrix type="matrix" values="0 0 0 0 0.354427 0 0 0 0 0.180009 0 0 0 0 0.0538352 0 0 0 1 0"/>
<feBlend mode="normal" in2="effect3_innerShadow_23_132" result="effect4_innerShadow_23_132"/>
</filter>
<filter id="filter2_ddii_23_132" x="44.2144" y="63.7873" width="106.857" height="81.8557" filterUnits="userSpaceOnUse" color-interpolation-filters="sRGB">
<feFlood flood-opacity="0" result="BackgroundImageFix"/>
<feColorMatrix in="SourceAlpha" type="matrix" values="0 0 0 0 0 0 0 0 0 0 0 0 0 0 0 0 0 0 127 0" result="hardAlpha"/>
<feOffset dy="16"/>
<feGaussianBlur stdDeviation="16"/>
<feColorMatrix type="matrix" values="0 0 0 0 0.282353 0 0 0 0 0.054902 0 0 0 0 0.301961 0 0 0 0.2 0"/>
<feBlend mode="normal" in2="BackgroundImageFix" result="effect1_dropShadow_23_132"/>
<feColorMatrix in="SourceAlpha" type="matrix" values="0 0 0 0 0 0 0 0 0 0 0 0 0 0 0 0 0 0 127 0" result="hardAlpha"/>
<feOffset dy="4"/>
<feGaussianBlur stdDeviation="4"/>
<feComposite in2="hardAlpha" operator="out"/>
<feColorMatrix type="matrix" values="0 0 0 0 0.282353 0 0 0 0 0.054902 0 0 0 0 0.301961 0 0 0 0.2 0"/>
<feBlend mode="normal" in2="effect1_dropShadow_23_132" result="effect2_dropShadow_23_132"/>
<feBlend mode="normal" in="SourceGraphic" in2="effect2_dropShadow_23_132" result="shape"/>
<feColorMatrix in="SourceAlpha" type="matrix" values="0 0 0 0 0 0 0 0 0 0 0 0 0 0 0 0 0 0 127 0" result="hardAlpha"/>
<feOffset dx="6" dy="6"/>
<feGaussianBlur stdDeviation="16"/>
<feComposite in2="hardAlpha" operator="arithmetic" k2="-1" k3="1"/>
<feColorMatrix type="matrix" values="0 0 0 0 0.76276 0 0 0 0 0.388636 0 0 0 0 0.122215 0 0 0 1 0"/>
<feBlend mode="normal" in2="shape" result="effect3_innerShadow_23_132"/>
<feColorMatrix in="SourceAlpha" type="matrix" values="0 0 0 0 0 0 0 0 0 0 0 0 0 0 0 0 0 0 127 0" result="hardAlpha"/>
<feOffset dx="-6" dy="-6"/>
<feGaussianBlur stdDeviation="16"/>
<feComposite in2="hardAlpha" operator="arithmetic" k2="-1" k3="1"/>
<feColorMatrix type="matrix" values="0 0 0 0 0.354427 0 0 0 0 0.180009 0 0 0 0 0.0538352 0 0 0 1 0"/>
<feBlend mode="normal" in2="effect3_innerShadow_23_132" result="effect4_innerShadow_23_132"/>
</filter>
<filter id="filter3_ddii_23_132" x="112.072" y="63.7873" width="106.857" height="81.8557" filterUnits="userSpaceOnUse" color-interpolation-filters="sRGB">
<feFlood flood-opacity="0" result="BackgroundImageFix"/>
<feColorMatrix in="SourceAlpha" type="matrix" values="0 0 0 0 0 0 0 0 0 0 0 0 0 0 0 0 0 0 127 0" result="hardAlpha"/>
<feOffset dy="16"/>
<feGaussianBlur stdDeviation="16"/>
<feColorMatrix type="matrix" values="0 0 0 0 0.282353 0 0 0 0 0.054902 0 0 0 0 0.301961 0 0 0 0.2 0"/>
<feBlend mode="normal" in2="BackgroundImageFix" result="effect1_dropShadow_23_132"/>
<feColorMatrix in="SourceAlpha" type="matrix" values="0 0 0 0 0 0 0 0 0 0 0 0 0 0 0 0 0 0 127 0" result="hardAlpha"/>
<feOffset dy="4"/>
<feGaussianBlur stdDeviation="4"/>
<feComposite in2="hardAlpha" operator="out"/>
<feColorMatrix type="matrix" values="0 0 0 0 0.282353 0 0 0 0 0.054902 0 0 0 0 0.301961 0 0 0 0.2 0"/>
<feBlend mode="normal" in2="effect1_dropShadow_23_132" result="effect2_dropShadow_23_132"/>
<feBlend mode="normal" in="SourceGraphic" in2="effect2_dropShadow_23_132" result="shape"/>
<feColorMatrix in="SourceAlpha" type="matrix" values="0 0 0 0 0 0 0 0 0 0 0 0 0 0 0 0 0 0 127 0" result="hardAlpha"/>
<feOffset dx="6" dy="6"/>
<feGaussianBlur stdDeviation="16"/>
<feComposite in2="hardAlpha" operator="arithmetic" k2="-1" k3="1"/>
<feColorMatrix type="matrix" values="0 0 0 0 0.76276 0 0 0 0 0.388636 0 0 0 0 0.122215 0 0 0 1 0"/>
<feBlend mode="normal" in2="shape" result="effect3_innerShadow_23_132"/>
<feColorMatrix in="SourceAlpha" type="matrix" values="0 0 0 0 0 0 0 0 0 0 0 0 0 0 0 0 0 0 127 0" result="hardAlpha"/>
<feOffset dx="-6" dy="-6"/>
<feGaussianBlur stdDeviation="16"/>
<feComposite in2="hardAlpha" operator="arithmetic" k2="-1" k3="1"/>
<feColorMatrix type="matrix" values="0 0 0 0 0.354427 0 0 0 0 0.180009 0 0 0 0 0.0538352 0 0 0 1 0"/>
<feBlend mode="normal" in2="effect3_innerShadow_23_132" result="effect4_innerShadow_23_132"/>
</filter>
<linearGradient id="paint0_linear_23_132" x1="86.9286" y1="22.6429" x2="47.6428" y2="106.571" gradientUnits="userSpaceOnUse">
<stop stop-color="#188DE1"/>
<stop offset="0.258035" stop-color="#4DACF1"/>
<stop offset="0.482007" stop-color="#2192E3"/>
<stop offset="1" stop-color="#1073BA"/>
</linearGradient>
<radialGradient id="paint1_radial_23_132" cx="0" cy="0" r="1" gradientUnits="userSpaceOnUse" gradientTransform="translate(38.7143 129.786) rotate(61.3895) scale(22.3749)">
<stop stop-color="#FFCE21"/>
<stop offset="1" stop-color="#E9A326"/>
</radialGradient>
<radialGradient id="paint2_radial_23_132" cx="0" cy="0" r="1" gradientUnits="userSpaceOnUse" gradientTransform="translate(3.57143 8.92857) rotate(61.3895) scale(22.3749 22.3749)">
<stop stop-color="#FFCE21"/>
<stop offset="1" stop-color="#E9A326"/>
</radialGradient>
<radialGradient id="paint3_radial_23_132" cx="0" cy="0" r="1" gradientUnits="userSpaceOnUse" gradientTransform="translate(101.215 78) rotate(78.559) scale(153.041 153.041)">
<stop stop-color="#FFF7D9"/>
<stop offset="0.122763" stop-color="#FFE690"/>
<stop offset="0.518601" stop-color="#FFCE22"/>
<stop offset="1" stop-color="#FFB422"/>
</radialGradient>
<radialGradient id="paint4_radial_23_132" cx="0" cy="0" r="1" gradientUnits="userSpaceOnUse" gradientTransform="translate(101.215 78) rotate(78.559) scale(153.041 153.041)">
<stop offset="0.857147" stop-color="#EDFF22" stop-opacity="0"/>
<stop offset="1" stop-color="#FF24F6" stop-opacity="0.3"/>
</radialGradient>
<clipPath id="clip0_23_132">
<rect width="256" height="256" fill="white"/>
</clipPath>
</defs>
</svg>
