<svg width="256" height="256" viewBox="0 0 256 256" fill="none" xmlns="http://www.w3.org/2000/svg">
<g clip-path="url(#clip0_10_3)">
<path d="M196 0H60C26.8629 0 0 26.8629 0 60V196C0 229.137 26.8629 256 60 256H196C229.137 256 256 229.137 256 196V60C256 26.8629 229.137 0 196 0Z" fill="#3C3C3C"/>
<path d="M80.8714 188.205C54.1152 177.922 55.6487 158.809 54.6237 138.486C54.0418 126.122 55.9636 113.768 60.2736 102.165C53.9941 81.8902 57.8522 68.6937 59.8377 63.8914C60.1389 63.2143 60.6019 62.6217 61.186 62.1656C61.7701 61.7096 62.4574 61.4042 63.1873 61.2763C76.1013 58.976 96.1986 72.3016 96.1986 72.3016C96.1986 72.3016 104.657 66.119 127.919 66.119C151.18 66.119 159.647 72.237 159.647 72.237C159.647 72.237 179.776 58.9356 192.658 61.2763C193.4 61.4083 194.096 61.7233 194.686 62.1926C195.275 62.6619 195.737 63.2708 196.032 63.964C198.017 68.8067 201.875 81.9629 195.596 102.238C199.906 113.841 201.828 126.195 201.246 138.558C200.213 158.882 201.754 177.994 174.998 188.277C149.275 198.068 106.562 198.068 80.8714 188.205V188.205Z" fill="#DADBE2"/>
<path d="M179.042 113.941C161.882 100.567 156.354 117.977 127.919 117.977C99.4836 117.977 93.9629 100.527 76.7954 113.941C59.6279 127.356 75.5282 146.226 72.5257 159.318C69.5232 172.409 68.9421 181.11 88.1435 187.567C107.345 194.024 120.872 194.258 127.919 194.258C134.965 194.258 148.5 193.967 167.702 187.567C186.903 181.166 186.314 172.441 183.311 159.318C180.309 146.194 196.209 127.323 179.042 113.941Z" fill="#5B616C"/>
<path d="M76.7953 120.317C93.9628 106.935 99.4836 124.353 127.919 124.353C156.354 124.353 161.882 106.903 179.042 120.317C184.191 124.353 186.354 128.841 186.952 133.546C187.71 126.589 186.483 119.744 179.042 113.941C161.882 100.567 156.354 117.977 127.919 117.977C99.4836 117.977 93.9628 100.527 76.7953 113.941C69.3536 119.744 68.1349 126.589 68.8855 133.546C69.4909 128.841 71.6459 124.329 76.7953 120.317V120.317Z" fill="#45515D"/>
<path d="M127.918 67.3943C104.657 67.3943 96.1985 73.5204 96.1985 73.5204C95.9736 74.8105 95.2472 75.9592 94.1779 76.7154C93.1086 77.4716 91.7835 77.7738 90.4922 77.556H90.4114C80.282 67.0634 64.7772 68.3709 64.7772 68.3709C59.5874 83.4318 65.9798 98.5089 65.9798 98.5089C65.2776 103.602 61.5003 103.457 61.5003 103.457C61.5003 103.457 54.8415 118.162 55.8504 138.486C55.9876 141.101 56.0764 143.692 56.1894 146.242C59.5228 95.6113 100.944 70.0013 123.802 76.9264C138.451 81.3575 117.797 101.189 117.797 101.189C143.569 83.8112 182.722 83.3027 192.125 117.097C205.039 163.426 190.107 178.858 190.043 179.084C201.084 168.414 200.414 153.789 201.189 138.486C201.771 126.122 199.849 113.768 195.539 102.165C191.439 103.65 189.615 97.2498 189.615 97.2498C197.162 85.5626 190.366 68.613 190.366 68.613C179.276 66.6194 164.901 76.9022 164.901 76.9022C159.211 78.3954 159.59 73.4881 159.59 73.4881C159.59 73.4881 151.18 67.3943 127.918 67.3943V67.3943Z" fill="#CACCD3"/>
<path d="M66.3108 166.453C64.144 166.055 61.9556 165.785 59.757 165.645C57.5752 165.502 55.387 165.483 53.2031 165.589C51.0527 165.701 48.9135 165.97 46.8026 166.396C44.7664 166.841 42.7832 167.501 40.8864 168.365H40.838C40.3553 168.587 39.8043 168.608 39.3063 168.423C38.8083 168.238 38.4041 167.863 38.1826 167.381C37.961 166.898 37.9403 166.347 38.1249 165.849C38.3096 165.351 38.6845 164.947 39.1672 164.725L39.3852 164.637C41.6439 163.917 43.9739 163.443 46.3345 163.224C48.6293 163.063 50.9326 163.063 53.2273 163.224C55.4831 163.392 57.7277 163.686 59.9507 164.104C62.1642 164.517 64.3524 165.056 66.5045 165.718C66.5513 165.733 66.5946 165.757 66.6322 165.788C66.6697 165.82 66.7006 165.858 66.7231 165.902C66.7456 165.945 66.7592 165.993 66.7633 166.042C66.7673 166.09 66.7617 166.14 66.7467 166.186C66.7237 166.275 66.6672 166.352 66.5889 166.4C66.5106 166.448 66.4167 166.464 66.327 166.445L66.3108 166.453Z" fill="#CACCD3"/>
<path d="M66.0445 170.642C63.856 170.881 61.6837 171.25 59.539 171.747C57.4024 172.222 55.295 172.821 53.2273 173.539C51.1974 174.257 49.2227 175.123 47.3192 176.13C45.49 177.129 43.772 178.32 42.1939 179.681V179.722C41.7926 180.078 41.2661 180.26 40.7302 180.229C40.1944 180.197 39.6931 179.954 39.3367 179.552C38.9803 179.151 38.7979 178.624 38.8297 178.088C38.8615 177.553 39.1049 177.051 39.5062 176.695C39.5637 176.638 39.6289 176.589 39.6999 176.55C41.66 175.22 43.7604 174.11 45.9632 173.24C48.1114 172.417 50.3184 171.756 52.5655 171.263C54.777 170.786 57.0136 170.433 59.2646 170.206C61.5032 169.972 63.7534 169.866 66.0041 169.891C66.1027 169.907 66.1913 169.96 66.2514 170.04C66.3116 170.12 66.3386 170.22 66.3269 170.319C66.3155 170.4 66.2778 170.476 66.2195 170.534C66.1613 170.592 66.0857 170.63 66.0041 170.642H66.0445Z" fill="#CACCD3"/>
<path d="M189.341 165.726C191.49 165.063 193.675 164.524 195.886 164.112C198.113 163.698 200.36 163.404 202.618 163.232C204.91 163.071 207.211 163.071 209.503 163.232C211.864 163.447 214.194 163.921 216.452 164.645C216.714 164.706 216.962 164.819 217.179 164.978C217.397 165.137 217.58 165.338 217.718 165.57C217.856 165.801 217.946 166.058 217.982 166.325C218.018 166.592 218 166.863 217.929 167.123C217.858 167.383 217.735 167.626 217.567 167.837C217.4 168.048 217.192 168.223 216.955 168.352C216.719 168.481 216.458 168.561 216.19 168.587C215.922 168.612 215.652 168.584 215.395 168.503L215.233 168.454L215.015 168.374H214.959C213.062 167.509 211.079 166.849 209.043 166.404C206.932 165.979 204.792 165.709 202.642 165.597C200.458 165.491 198.27 165.51 196.088 165.654C193.887 165.793 191.696 166.063 189.526 166.461C189.43 166.48 189.33 166.46 189.248 166.405C189.167 166.351 189.11 166.266 189.09 166.17C189.073 166.078 189.089 165.984 189.135 165.902C189.18 165.821 189.253 165.759 189.341 165.726V165.726Z" fill="#CACCD3"/>
<path d="M189.817 169.891C192.067 169.866 194.318 169.972 196.556 170.206C198.807 170.433 201.044 170.786 203.255 171.263C205.502 171.756 207.709 172.417 209.858 173.24C212.061 174.113 214.161 175.225 216.121 176.558C216.342 176.702 216.532 176.888 216.681 177.106C216.83 177.324 216.935 177.569 216.989 177.827C217.044 178.085 217.047 178.351 216.998 178.611C216.949 178.87 216.85 179.117 216.706 179.338C216.562 179.559 216.376 179.75 216.158 179.899C215.94 180.048 215.695 180.152 215.437 180.207C215.179 180.261 214.912 180.264 214.653 180.215C214.394 180.167 214.147 180.068 213.926 179.923H213.869C213.806 179.882 213.747 179.836 213.691 179.786L213.635 179.738C212.06 178.376 210.344 177.186 208.518 176.186C206.614 175.18 204.64 174.314 202.61 173.596C200.542 172.886 198.438 172.288 196.306 171.804C194.161 171.307 191.989 170.937 189.801 170.698C189.702 170.682 189.613 170.629 189.553 170.549C189.493 170.469 189.466 170.369 189.478 170.27C189.489 170.189 189.527 170.113 189.585 170.055C189.643 169.997 189.719 169.959 189.801 169.947L189.817 169.891Z" fill="#CACCD3"/>
<path d="M122.866 164.637H128.548V170.319H122.866V164.637Z" fill="#64BCEA"/>
<path d="M128.984 164.637H134.666V170.319H128.984V164.637Z" fill="#64BCEA"/>
<path d="M107.587 151.036H113.269V156.719H107.587V151.036Z" fill="#64BCEA"/>
<path d="M107.587 144.935H113.269V150.617H107.587V144.935Z" fill="#64BCEA"/>
<path d="M84.0272 151.036H89.7094V156.719H84.0272V151.036Z" fill="#64BCEA"/>
<path d="M84.0272 144.935H89.7094V150.617H84.0272V144.935Z" fill="#64BCEA"/>
<path d="M101.913 138.833H107.595V144.515H101.913V138.833Z" fill="#64BCEA"/>
<path d="M95.8113 138.833H101.493V144.515H95.8113V138.833Z" fill="#64BCEA"/>
<path d="M89.7095 138.833H95.3916V144.515H89.7095V138.833Z" fill="#64BCEA"/>
<path d="M166.556 151.036H172.238V156.719H166.556V151.036Z" fill="#64BCEA"/>
<path d="M166.556 144.935H172.238V150.617H166.556V144.935Z" fill="#64BCEA"/>
<path d="M142.996 151.036H148.678V156.719H142.996V151.036Z" fill="#64BCEA"/>
<path d="M142.996 144.935H148.678V150.617H142.996V144.935Z" fill="#64BCEA"/>
<path d="M160.881 138.833H166.564V144.515H160.881V138.833Z" fill="#64BCEA"/>
<path d="M154.78 138.833H160.462V144.515H154.78V138.833Z" fill="#64BCEA"/>
<path d="M148.678 138.833H154.36V144.515H148.678V138.833Z" fill="#64BCEA"/>
</g>
<defs>
<clipPath id="clip0_10_3">
<rect width="256" height="256" fill="white"/>
</clipPath>
</defs>
</svg>
