<svg width="256" height="256" viewBox="0 0 256 256" fill="none" xmlns="http://www.w3.org/2000/svg">
<g clip-path="url(#clip0_208_117)">
<path d="M196 0H60C26.8629 0 0 26.8629 0 60V196C0 229.137 26.8629 256 60 256H196C229.137 256 256 229.137 256 196V60C256 26.8629 229.137 0 196 0Z" fill="#E96F59"/>
<path d="M76.2857 38C76.2857 47.2743 70.3457 70.1686 42 80.8571V98C49.0387 96.2936 55.0837 93.9466 60.3984 91.2031C65.9065 99.0903 67.7143 110.29 67.7143 115.143H84.8571C84.8571 107.986 81.3343 98.1543 76.2857 89.4286H63.6462C71.9444 84.5668 78.0735 78.6171 82.5301 72.2857H86.615C90.6006 78.5638 93.4286 86.4516 93.4286 89.4286H110.571C110.571 84.5579 108.852 78.442 106.219 72.2857H127.714V55.1429H90.75C92.6166 48.8852 93.4286 42.9142 93.4286 38H76.2857ZM162 38C162 47.2743 156.06 70.1686 127.714 80.8571V98C147.95 93.0943 160.552 83.2134 168.244 72.2857H172.329C176.315 78.5638 179.143 86.4516 179.143 89.4286H196.286C196.286 84.5579 194.567 78.442 191.933 72.2857H213.429V55.1429H176.464C178.331 48.8852 179.143 42.9142 179.143 38H162ZM127.714 98H93.4286V115.143H179.143V192.286C179.143 197.129 175.415 200.857 170.571 200.857H153.429V218H170.571C184.671 218 196.286 206.385 196.286 192.286V98H127.714ZM59.1429 123.714V218H76.2857V123.714H59.1429ZM93.4286 132.286V200.857H136.286C150.385 200.857 162 189.243 162 175.143V132.286H93.4286ZM110.571 149.429H144.857V158H110.571V149.429ZM110.571 175.143H144.857C144.857 179.986 141.129 183.714 136.286 183.714H110.571V175.143Z" fill="white"/>
</g>
<defs>
<clipPath id="clip0_208_117">
<rect width="256" height="256" fill="white"/>
</clipPath>
</defs>
</svg>
