<svg width="256" height="256" viewBox="0 0 256 256" fill="none" xmlns="http://www.w3.org/2000/svg">
<g clip-path="url(#clip0_203_20)">
<path d="M256 0H0V256H256V0Z" fill="url(#paint0_linear_203_20)"/>
<path d="M42.6666 81.0667H55.4666C121.446 81.0667 174.933 134.554 174.933 200.533V213.333H200.533C207.603 213.333 213.333 207.603 213.333 200.533C213.333 113.346 142.654 42.6667 55.4666 42.6667C48.3974 42.6667 42.6666 48.3974 42.6666 55.4667V81.0667Z" fill="url(#paint1_radial_203_20)"/>
<path d="M179.2 200.533H213.333C213.333 207.603 207.603 213.333 200.533 213.333H179.2V200.533Z" fill="url(#paint2_linear_203_20)"/>
<path d="M55.4666 42.6667V76.8H42.6666V55.4667C42.6666 48.3974 48.3974 42.6667 55.4666 42.6667Z" fill="url(#paint3_linear_203_20)"/>
<path d="M42.6666 76.8H55.4666C123.803 76.8 179.2 132.197 179.2 200.533V213.333H140.8V200.533C140.8 153.405 102.595 115.2 55.4666 115.2H42.6666V76.8Z" fill="url(#paint4_radial_203_20)"/>
<path d="M145.067 200.533H179.2V213.333H145.067V200.533Z" fill="url(#paint5_linear_203_20)"/>
<path d="M42.6666 110.933V76.8H55.4666V110.933H42.6666Z" fill="url(#paint6_linear_203_20)"/>
<path d="M42.6666 132.267C42.6666 139.336 48.3974 145.067 55.4666 145.067C86.1 145.067 110.933 169.9 110.933 200.533C110.933 207.603 116.664 213.333 123.733 213.333H145.067V200.533C145.067 151.049 104.951 110.933 55.4666 110.933H42.6666V132.267Z" fill="url(#paint7_radial_203_20)"/>
<path d="M110.933 200.533H145.067V213.333H123.733C116.664 213.333 110.933 207.603 110.933 200.533Z" fill="url(#paint8_radial_203_20)"/>
<path d="M55.4666 145.067C48.3974 145.067 42.6666 139.336 42.6666 132.267V110.933H55.4666V145.067Z" fill="url(#paint9_radial_203_20)"/>
</g>
<defs>
<linearGradient id="paint0_linear_203_20" x1="128" y1="0" x2="128" y2="256" gradientUnits="userSpaceOnUse">
<stop stop-color="#174299"/>
<stop offset="1" stop-color="#001E59"/>
</linearGradient>
<radialGradient id="paint1_radial_203_20" cx="0" cy="0" r="1" gradientUnits="userSpaceOnUse" gradientTransform="translate(55.4666 200.533) rotate(-90) scale(157.867)">
<stop offset="0.770277" stop-color="#FF4000"/>
<stop offset="1" stop-color="#8754C9"/>
</radialGradient>
<linearGradient id="paint2_linear_203_20" x1="177.067" y1="206.933" x2="213.333" y2="206.933" gradientUnits="userSpaceOnUse">
<stop stop-color="#FF4000"/>
<stop offset="1" stop-color="#8754C9"/>
</linearGradient>
<linearGradient id="paint3_linear_203_20" x1="49.0666" y1="42.6667" x2="49.0666" y2="78.9333" gradientUnits="userSpaceOnUse">
<stop stop-color="#8754C9"/>
<stop offset="1" stop-color="#FF4000"/>
</linearGradient>
<radialGradient id="paint4_radial_203_20" cx="0" cy="0" r="1" gradientUnits="userSpaceOnUse" gradientTransform="translate(55.4666 200.533) rotate(-90) scale(123.733)">
<stop offset="0.723929" stop-color="#FFF700"/>
<stop offset="1" stop-color="#FF9901"/>
</radialGradient>
<linearGradient id="paint5_linear_203_20" x1="145.067" y1="206.933" x2="179.2" y2="206.933" gradientUnits="userSpaceOnUse">
<stop stop-color="#FFF700"/>
<stop offset="1" stop-color="#FF9901"/>
</linearGradient>
<linearGradient id="paint6_linear_203_20" x1="49.0666" y1="110.933" x2="49.0666" y2="76.8" gradientUnits="userSpaceOnUse">
<stop stop-color="#FFF700"/>
<stop offset="1" stop-color="#FF9901"/>
</linearGradient>
<radialGradient id="paint7_radial_203_20" cx="0" cy="0" r="1" gradientUnits="userSpaceOnUse" gradientTransform="translate(55.4666 200.533) rotate(-90) scale(89.6)">
<stop offset="0.59513" stop-color="#00AAFF"/>
<stop offset="1" stop-color="#01DA40"/>
</radialGradient>
<radialGradient id="paint8_radial_203_20" cx="0" cy="0" r="1" gradientUnits="userSpaceOnUse" gradientTransform="translate(108.8 206.933) scale(36.2667 96.711)">
<stop stop-color="#00AAFF"/>
<stop offset="1" stop-color="#01DA40"/>
</radialGradient>
<radialGradient id="paint9_radial_203_20" cx="0" cy="0" r="1" gradientUnits="userSpaceOnUse" gradientTransform="translate(49.0666 147.2) rotate(-90) scale(36.2667 687.723)">
<stop stop-color="#00AAFF"/>
<stop offset="1" stop-color="#01DA40"/>
</radialGradient>
<clipPath id="clip0_203_20">
<rect width="256" height="256" rx="56" fill="white"/>
</clipPath>
</defs>
</svg>
