<svg width="256" height="256" viewBox="0 0 256 256" fill="none" xmlns="http://www.w3.org/2000/svg">
<g clip-path="url(#clip0_16_310)">
<path d="M196 0H60C26.8629 0 0 26.8629 0 60V196C0 229.137 26.8629 256 60 256H196C229.137 256 256 229.137 256 196V60C256 26.8629 229.137 0 196 0Z" fill="url(#paint0_linear_16_310)"/>
<path d="M100.804 134.44L86.5323 181.151C86.5323 181.151 84.6446 186.407 103.732 191.579C114.597 194.521 128.217 193.84 128.672 186.302C128.919 182.185 121.016 177.305 118.006 174.471C100.837 158.299 100.804 134.44 100.804 134.44Z" fill="url(#paint1_linear_16_310)"/>
<path d="M103.799 191.647C99.3259 190.63 94.9202 189.207 90.5822 187.309C86.6509 185.614 82.8891 183.683 79.3984 181.412C78.8223 181.039 78.2461 180.666 77.67 180.294C49.3377 161.315 35.985 126.205 45.6098 93.9412C40.5601 91.8739 35.9172 88.2476 36.8661 84.723C37.8828 80.7917 45.542 78.4194 51.5067 79.5039C51.5406 79.47 51.5406 79.4022 51.5745 79.3683L51.6084 79.3345C61.7755 62.3893 85.1937 57.0685 102.105 71.4719C106.816 75.5049 110.069 80.5884 111.865 86.1803C112.408 87.807 112.814 89.5015 113.085 91.1961C113.119 91.5689 113.221 91.9416 113.221 92.3483C113.662 95.7035 113.594 99.1603 113.018 102.583C117.796 106.481 121.287 114.241 118.982 117.292C117.186 119.698 112.374 118.546 108.002 116.207C102.478 129.052 91.2261 161.857 103.799 191.647Z" fill="url(#paint2_linear_16_310)"/>
<path d="M103.799 191.647C99.3259 190.63 94.9202 189.207 90.5822 187.309C86.6509 185.614 82.8891 183.683 79.3984 181.412C87.1932 176.057 94.6152 146.539 99.4954 129.729C102.207 120.24 108.714 102.617 113.221 92.3483C113.662 95.7035 113.594 99.1603 113.018 102.583C117.796 106.481 121.287 114.241 118.982 117.292C117.186 119.698 112.374 118.546 108.002 116.207C102.478 129.052 91.2261 161.857 103.799 191.647Z" fill="url(#paint3_linear_16_310)"/>
<path d="M198.215 105.725L198.067 87.2778L186.943 72.7699C186.943 72.7699 180.448 67.7279 179.327 67.033C173.959 63.7115 165.921 60.069 162.729 66.7262C160.985 70.364 166.056 77.8168 167.776 81.4593C175.306 97.3954 172.713 104.57 165.921 131.851L198.215 105.725Z" fill="url(#paint4_linear_16_310)"/>
<path d="M225.141 140.78C225.141 143.512 218.479 148.832 212.297 152.666V152.714C216.418 153.002 219.821 154.152 219.821 156.884C219.821 160.047 210.667 166.853 203.861 170.591C201.369 174.378 198.541 177.972 195.282 181.279C194.851 181.711 194.467 182.094 194.036 182.477C192.742 183.771 191.304 185.018 189.866 186.216V186.264C174.961 197.527 152.387 193.741 142.561 174.953C138.535 167.284 138.008 158.657 140.548 150.845C142.13 145.908 144.91 141.259 148.792 137.377C148.84 137.329 148.888 137.281 148.936 137.233C177.549 108.572 182.677 84.4165 176.782 65.5807C183.875 69.1274 190.25 74.6392 195.666 81.0615C206.689 94.098 213.735 110.729 215.029 121.561C219.726 121.129 224.758 121.848 225.285 125.299C225.621 127.791 221.355 132.728 216.994 136.61C221.355 136.802 225.141 137.952 225.141 140.78Z" fill="url(#paint5_linear_16_310)"/>
<path d="M195.666 81.0615C189.77 81.445 186.607 87.8194 185.936 90.8868C183.204 103.061 175.344 116.001 167.771 125.491C162.979 131.434 149.127 144.614 140.548 150.845C142.13 145.908 144.91 141.259 148.792 137.377C148.84 137.329 148.888 137.281 148.936 137.233C177.549 108.572 182.677 84.4165 176.782 65.5807C183.875 69.1274 190.25 74.6392 195.666 81.0615Z" fill="url(#paint6_linear_16_310)"/>
</g>
<defs>
<linearGradient id="paint0_linear_16_310" x1="0" y1="0" x2="256" y2="256" gradientUnits="userSpaceOnUse">
<stop stop-color="#928DAB"/>
<stop offset="1" stop-color="#1F1C2C"/>
</linearGradient>
<linearGradient id="paint1_linear_16_310" x1="122.564" y1="153.544" x2="74.264" y2="201.845" gradientUnits="userSpaceOnUse">
<stop stop-color="#21AD64"/>
<stop offset="1" stop-color="#088242"/>
</linearGradient>
<linearGradient id="paint2_linear_16_310" x1="132.027" y1="78.6736" x2="30.6201" y2="175.776" gradientUnits="userSpaceOnUse">
<stop stop-color="#7DFFCE"/>
<stop offset="1" stop-color="#50C08D"/>
</linearGradient>
<linearGradient id="paint3_linear_16_310" x1="150.944" y1="99.5636" x2="69.5567" y2="180.951" gradientUnits="userSpaceOnUse">
<stop stop-color="#7DFFCE"/>
<stop offset="1" stop-color="#50C08D"/>
</linearGradient>
<linearGradient id="paint4_linear_16_310" x1="162.375" y1="97.4242" x2="198.215" y2="97.4242" gradientUnits="userSpaceOnUse">
<stop stop-color="#D95F6A"/>
<stop offset="0.014" stop-color="#D85C67"/>
<stop offset="0.142" stop-color="#CE424E"/>
<stop offset="0.285" stop-color="#C72F3A"/>
<stop offset="0.449" stop-color="#C2212C"/>
<stop offset="0.65" stop-color="#BF1824"/>
<stop offset="1" stop-color="#BE1622"/>
</linearGradient>
<linearGradient id="paint5_linear_16_310" x1="182.15" y1="66.3572" x2="182.15" y2="229.749" gradientUnits="userSpaceOnUse">
<stop stop-color="#F44F5A"/>
<stop offset="0.443" stop-color="#EE3D4A"/>
<stop offset="1" stop-color="#E52030"/>
</linearGradient>
<linearGradient id="paint6_linear_16_310" x1="168.107" y1="41.655" x2="168.107" y2="161.758" gradientUnits="userSpaceOnUse">
<stop stop-color="#F44F5A"/>
<stop offset="0.443" stop-color="#EE3D4A"/>
<stop offset="1" stop-color="#E52030"/>
</linearGradient>
<clipPath id="clip0_16_310">
<rect width="256" height="256" fill="white"/>
</clipPath>
</defs>
</svg>
