<svg width="256" height="256" viewBox="0 0 256 256" fill="none" xmlns="http://www.w3.org/2000/svg">
<g clip-path="url(#clip0_3_360)">
<path d="M196 0H60C26.8629 0 0 26.8629 0 60V196C0 229.137 26.8629 256 60 256H196C229.137 256 256 229.137 256 196V60C256 26.8629 229.137 0 196 0Z" fill="url(#paint0_linear_3_360)"/>
<path fill-rule="evenodd" clip-rule="evenodd" d="M166.054 102.985C177.676 111.289 191.916 116.171 207.292 116.171V86.5914C204.379 86.5914 201.481 86.289 198.635 85.6843V108.966C183.259 108.966 169.025 104.077 157.396 95.7802V156.134C157.396 186.326 132.905 210.802 102.698 210.802C91.4296 210.802 80.9503 207.395 72.2482 201.555C82.1818 211.702 96.0314 218 111.356 218C141.562 218 166.054 193.524 166.054 163.332V102.985ZM176.739 73.1475C170.803 66.6652 166.902 58.2802 166.054 49.0103V45.205H157.846C159.91 56.9823 166.961 67.0486 176.739 73.1475ZM91.3559 178.391C88.0373 174.04 86.2453 168.723 86.2526 163.251C86.2526 149.438 97.4547 138.243 111.275 138.243C113.849 138.243 116.408 138.634 118.863 139.416V109.18C115.995 108.789 113.104 108.619 110.205 108.678V132.211C107.75 131.429 105.191 131.038 102.61 131.038C88.7895 131.038 77.5874 142.233 77.5874 156.046C77.5948 165.817 83.1922 174.276 91.3559 178.391Z" fill="#EC407A"/>
<path fill-rule="evenodd" clip-rule="evenodd" d="M157.395 95.7802C169.018 104.084 183.258 108.966 198.634 108.966V85.6843C190.05 83.8554 182.454 79.3716 176.739 73.1401C166.96 67.0413 159.917 56.9823 157.852 45.205H136.296V163.332C136.245 177.1 125.065 188.251 111.274 188.251C103.147 188.251 95.9276 184.379 91.3553 178.383C83.1916 174.268 77.5942 165.81 77.5942 156.046C77.5942 142.233 88.7963 131.038 102.616 131.038C105.264 131.038 107.815 131.451 110.212 132.211V108.686C80.5367 109.298 56.6724 133.531 56.6724 163.339C56.6724 178.221 62.6164 191.709 72.2624 201.562C80.9645 207.403 91.4438 210.81 102.712 210.81C132.919 210.81 157.41 186.333 157.41 156.142L157.395 95.7802Z" fill="white"/>
<path fill-rule="evenodd" clip-rule="evenodd" d="M198.634 85.6917V79.3938C190.891 79.4086 183.31 77.2404 176.739 73.1401C182.55 79.5044 190.205 83.8923 198.634 85.6917ZM157.845 45.205C157.646 44.0767 157.499 42.9484 157.395 41.8053V38H127.631V156.134C127.587 169.903 116.4 181.053 102.609 181.053C98.5605 181.053 94.7404 180.094 91.3555 178.383C95.9277 184.379 103.147 188.251 111.274 188.251C125.065 188.251 136.245 177.1 136.296 163.332V45.205H157.845ZM110.205 108.686V101.982C107.72 101.643 105.212 101.473 102.698 101.473C72.4838 101.473 48 125.95 48 156.142C48 175.072 57.6239 191.754 72.2478 201.562C62.6018 191.709 56.6578 178.221 56.6578 163.339C56.6578 133.531 80.5295 109.298 110.205 108.686Z" fill="#81D4FA"/>
</g>
<defs>
<linearGradient id="paint0_linear_3_360" x1="128" y1="0" x2="128" y2="256" gradientUnits="userSpaceOnUse">
<stop stop-color="#4C4C4C"/>
<stop offset="1" stop-color="#343434"/>
</linearGradient>
<clipPath id="clip0_3_360">
<rect width="256" height="256" fill="white"/>
</clipPath>
</defs>
</svg>
